<svg width="62" height="102" viewBox="0 0 62 102" fill="none" xmlns="http://www.w3.org/2000/svg">
<path fill-rule="evenodd" clip-rule="evenodd" d="M37.7925 1.14771C38.644 1.2958 39.6066 1.44391 39.9028 1.48093C40.199 1.51795 41.902 2.22138 43.7162 3.07291C45.4933 3.92443 47.1223 4.62787 47.3074 4.62787C47.5295 4.62787 48.381 5.25726 49.2696 6.03474C50.1211 6.81222 52.1574 8.47825 53.7864 9.70001C58.9326 13.5874 60.5986 16.4382 60.6356 21.5473C60.6726 25.9901 60.6726 26.1752 60.3024 26.6194C60.1173 26.8416 59.8581 28.1744 59.7471 29.6183C59.599 31.0252 59.3768 33.0985 59.1917 34.1721C58.9326 35.8381 58.9696 36.1714 59.4879 36.3565C62.0795 37.134 62.5608 38.2446 61.4131 40.6511C60.8948 41.7618 60.6356 43.2427 60.5245 45.9084C60.4135 48.611 60.1173 50.3881 59.3768 52.4984C58.8585 54.0534 58.4142 55.8305 58.4142 56.3858C58.4142 56.9412 58.2661 57.5706 58.1181 57.7927C57.6738 58.4961 55.3043 59.7919 54.4898 59.7919C53.9715 59.7919 53.3051 60.3843 52.5646 61.532C49.936 65.4935 49.1215 66.6412 48.27 67.5297C47.7887 68.048 47.3074 68.9736 47.1593 69.529C47.0112 70.0843 46.4188 71.269 45.8265 72.0835C45.1971 72.9351 44.7158 73.8606 44.7158 74.1568C44.7158 74.453 44.0864 75.4526 43.3089 76.4152C41.902 78.1183 40.0509 80.7099 39.3475 81.9316C39.1623 82.2648 38.2368 83.5236 37.3112 84.7083C36.3856 85.8931 35.2379 87.5961 34.7196 88.4476C34.2013 89.3362 33.5349 90.2988 33.2387 90.595C29.2032 94.7785 28.2036 95.7041 27.315 95.8892C26.7227 96.0373 26.1303 96.5186 25.8341 97.111C25.4269 98.0366 25.5009 98.1847 26.5005 98.9621C27.315 99.5915 27.5372 99.9988 27.3891 100.702C27.204 101.665 26.9448 101.776 25.2047 101.406C24.094 101.184 24.057 101.109 23.8349 98.4808C23.6127 96.2595 23.7238 95.482 24.3162 94.1492L24.402 93.952C24.7626 93.1229 25.2214 92.0684 25.4269 91.5205C25.7971 90.5579 26.5746 90.1137 26.5746 90.8912C26.5746 91.6316 27.5742 91.2244 28.944 90.0026C30.1288 88.8919 30.2769 88.5957 29.9437 87.9664C29.4253 87.0778 29.4253 84.7824 29.8696 83.8938C30.0917 83.5236 30.573 81.5984 30.9803 79.6362C31.4246 77.4889 32.2391 75.1194 32.9425 73.7496C33.0545 73.5377 33.1526 73.345 33.2419 73.1694C33.5561 72.5522 33.762 72.1476 34.081 71.8757C34.688 71.3583 35.7046 71.3214 38.6557 71.2144C39.1101 71.1979 39.6103 71.1798 40.162 71.158C42.8276 71.0469 43.3459 70.8988 44.3826 70.0473C45.049 69.4919 45.8265 69.0477 46.1226 69.0477C46.3818 69.0477 46.5669 68.8255 46.4558 68.5664C46.3448 68.2332 45.3452 68.1591 42.6055 68.2702C40.0509 68.3442 38.607 68.2332 38.0146 67.9C37.1631 67.4557 35.0898 66.9744 32.7574 66.6782C32.202 66.6042 31.1654 66.0118 30.462 65.3824C29.7215 64.753 28.944 64.3458 28.6108 64.4568C27.8704 64.753 25.5009 63.9015 24.1311 62.8648C23.5017 62.4206 22.7612 62.0133 22.5021 62.0133C22.2429 62.0133 21.4654 61.6801 20.799 61.2358C19.8734 60.6805 19.3921 60.0141 19.0219 58.7553C18.6517 57.4595 18.4295 57.1633 18.2444 57.6446C17.8002 58.7923 17.3929 58.3851 16.7265 56.1637C16.0601 53.9793 16.0231 53.7942 15.6528 51.6469C15.5874 51.2325 15.4577 50.4967 15.3167 49.6971L15.3167 49.6968C15.2184 49.1394 15.1147 48.5509 15.0234 48.0187C14.6532 46.1305 14.6902 45.6122 15.0605 45.3901C15.7269 44.9828 15.8379 36.6897 15.2086 36.0603C14.6902 35.542 14.9864 34.6164 15.6899 34.6164C16.2822 34.6164 16.3933 33.6168 15.8379 33.4317C15.1345 33.2095 15.8379 30.9141 16.6154 30.9141C17.615 30.9141 17.6521 30.8401 18.2815 26.4714C18.4295 25.5458 18.7628 24.3611 19.0219 23.8057C19.3181 23.2504 19.5402 22.2878 19.5402 21.6584C19.5402 20.2145 18.5776 18.3263 17.8742 18.3263C17.578 18.3263 17.3189 18.0672 17.3189 17.771C17.3189 17.4748 17.0597 17.2156 16.7265 17.2156C16.2822 17.2156 16.1711 17.4748 16.2822 18.3263C16.4303 19.2519 16.2822 19.474 15.3566 19.8072C13.8757 20.3256 13.6166 20.2885 13.6166 19.6221C13.6166 18.7706 12.5059 17.2156 11.9135 17.2156C11.2841 17.2156 11.2471 16.5862 11.8765 16.3271C12.2097 16.216 12.1727 16.0309 11.6914 15.6607C11.3582 15.3645 11.099 14.8832 11.136 14.587C11.1731 14.3278 11.062 13.9946 10.8399 13.9206C8.95169 13.1801 10.2845 10.1813 14.32 6.18284L17.0597 3.48015L18.9849 3.5542C20.0215 3.59122 21.0211 3.5542 21.2433 3.48015C22.0948 2.99885 24.9085 2.36946 29.2772 1.62901C31.9059 1.22175 34.4604 0.629389 35.0158 0.333206C35.8673 -0.111069 36.0154 -0.111069 36.1265 0.333206C36.2005 0.592366 36.941 0.962599 37.7925 1.14771ZM4.36085 31.0992C4.06467 31.8397 4.13872 32.0988 4.76811 32.395C6.10093 33.1355 6.6933 32.0618 5.58261 30.8401C5.10131 30.3217 5.10131 30.1737 5.50857 30.1737C6.58223 30.1737 7.69292 30.655 7.47078 30.9882C7.35971 31.1733 7.47078 31.5805 7.72994 31.9137C8.02612 32.2469 8.24825 32.7282 8.24825 32.9874C8.24825 33.5797 8.39635 33.6538 9.2849 33.2836C10.2845 32.9133 10.8769 33.6908 10.4326 34.8756C9.84024 36.5786 9.32192 36.4305 7.5078 34.0611C6.95245 33.3206 6.95245 33.3206 6.39711 34.024C5.87879 34.6904 5.80475 34.6534 4.47192 33.1355C3.69444 32.2469 3.10208 31.3954 3.17612 31.2103C3.21315 31.0622 3.10208 30.9141 2.87994 30.9141C2.69482 30.9141 2.50971 30.729 2.50971 30.5439C2.50971 30.3217 2.99101 30.1737 3.6204 30.1737C4.62001 30.1737 4.69406 30.2477 4.36085 31.0992ZM1.17689 38.2446C1.5101 39.5775 1.80628 41.6507 1.62116 41.6507C1.28796 41.6507 0.399407 39.6885 0.103224 38.4297C-0.0818903 37.4301 -0.0448641 37.245 0.436433 37.4301C0.732616 37.5412 1.06582 37.9114 1.17689 38.2446ZM4.65704 43.2427C4.54597 45.9824 4.47192 46.2786 3.80551 46.2786C3.1391 46.2786 3.06505 45.9824 2.95398 43.724C2.80589 40.6881 2.91697 40.3549 3.95361 40.2809C4.73109 40.2068 4.76811 40.3549 4.65704 43.2427ZM14.1349 46.5748C14.0238 46.908 13.7647 47.1301 13.5796 47.0191C13.1723 46.7599 13.1353 44.5015 13.5055 44.0943C13.8757 43.724 14.3941 45.7603 14.1349 46.5748ZM4.80513 49.9439C5.32345 50.203 5.69368 50.7584 5.76772 51.3877C5.87879 52.3503 5.84177 52.4244 5.13834 52.0171C4.69406 51.795 4.36085 51.4618 4.36085 51.2397C4.36085 51.0545 4.02765 50.5362 3.6204 50.0919C3.21314 49.6477 2.87994 49.0183 2.87994 48.7221C2.91696 48.2408 2.99101 48.2778 3.43528 48.8332C3.73146 49.2034 4.36085 49.7217 4.80513 49.9439ZM8.95169 50.7584C9.06276 51.0916 9.17383 51.758 9.17383 52.2763C9.17383 53.0168 9.02574 53.1648 8.35932 53.0538C7.39673 52.9427 7.0265 51.5358 7.69291 50.6843C8.28528 50.0179 8.65551 50.0179 8.95169 50.7584ZM13.9868 17.4007C13.7646 17.5488 13.6165 16.9565 13.6165 15.9569C13.6165 14.4019 13.6906 14.2538 14.5421 14.2538C15.5788 14.2538 15.7268 14.6981 14.9123 15.5126C14.6162 15.8088 14.357 16.2901 14.357 16.6233C14.357 16.9194 14.2089 17.2897 13.9868 17.4007ZM23.2795 25.1386C22.9463 25.5458 22.9463 25.7309 23.2425 25.9161C23.5016 26.0641 23.6127 26.5084 23.5016 26.8786C23.3165 27.508 23.5386 27.5821 25.2787 27.5821C26.3894 27.5821 27.352 27.7302 27.5001 27.9153C27.6112 28.1004 28.6108 28.4706 29.6844 28.6928C31.3505 29.026 31.7577 29.2851 32.1279 30.1367C32.3501 30.729 32.5352 31.4325 32.4982 31.6916C32.3871 32.4691 32.9054 33.876 33.2757 33.876C33.4608 33.876 33.794 33.5428 34.0531 33.1355C34.6825 32.1359 35.0898 32.2099 35.0898 33.3576C35.0898 34.1721 35.1638 34.2832 35.6451 33.876C36.3486 33.2836 36.3486 32.4321 35.6451 32.1729C35.1638 31.9878 35.2008 31.7657 35.8302 30.729L35.8677 30.6691C36.3331 29.9246 36.5509 29.5763 36.5107 29.2609C36.4754 28.9836 36.2407 28.7317 35.7998 28.2583L35.7998 28.2583L35.7998 28.2582L35.7562 28.2115C34.5344 26.9527 33.4978 26.4714 31.7947 26.4714C30.9802 26.4714 29.1661 26.0641 27.7592 25.5458C24.8344 24.4722 23.8718 24.3981 23.2795 25.1386ZM21.1692 29.9515C21.4654 29.4332 21.9837 28.8038 22.3539 28.5076C22.9833 28.0263 23.0944 28.0633 23.3906 28.8408C23.6867 29.6183 24.02 29.7294 26.3894 29.8775C28.6108 30.0256 29.2772 30.2107 30.3879 31.1362C31.1283 31.6916 31.6837 32.2469 31.6096 32.2839C31.5356 32.358 30.7951 32.0248 29.9066 31.5805C28.3887 30.766 28.3516 30.766 27.8333 31.4324C27.389 32.0618 27.0188 32.0988 24.6864 31.8767C23.2425 31.7656 21.7616 31.4694 21.3913 31.2843C20.7619 30.9511 20.7619 30.803 21.1692 29.9515ZM43.7161 28.2115C42.8276 28.5447 43.2348 29.063 44.3455 29.063C44.9749 29.063 45.4562 29.2481 45.4562 29.4703C45.4562 29.7294 45.8634 29.8035 46.5299 29.6924C48.1959 29.3592 50.01 30.0626 51.676 31.6916C53.4161 33.3947 53.5642 33.2836 52.4535 31.3214C51.1577 28.989 46.1596 27.2119 43.7161 28.2115ZM44.1234 31.9137C44.0123 31.8027 44.0493 31.5065 44.1974 31.2473C44.4196 30.8401 44.4936 30.8401 44.6417 31.2473C44.8268 31.7656 44.4566 32.2469 44.1234 31.9137ZM16.7634 32.3951C16.6524 32.5802 16.7264 32.7653 16.9115 32.7653C17.1337 32.7653 17.3188 32.5802 17.3188 32.3951C17.3188 32.1729 17.2447 32.0248 17.1707 32.0248C17.0596 32.0248 16.8745 32.1729 16.7634 32.3951ZM43.7532 33.4687C43.6421 33.2836 43.9383 32.9874 44.4196 32.8023C45.5673 32.321 47.5295 32.6912 49.3066 33.6538L50.7505 34.4313L48.9364 34.5424C47.0852 34.6534 44.1234 34.024 43.7532 33.4687ZM32.6093 38.726C31.9429 39.1702 31.3875 39.6145 31.3875 39.7626C31.3875 39.8737 32.128 39.9477 33.0536 39.8737C34.5345 39.7256 34.7196 39.6145 34.7196 38.837C34.7196 37.7634 34.1643 37.7264 32.6093 38.726ZM30.1287 42.7615C30.573 42.7615 31.0913 42.5764 31.2024 42.3913C31.3505 42.1321 31.6467 42.1321 32.128 42.3913C32.4982 42.5764 33.2387 42.7615 33.757 42.7615C34.5345 42.7615 34.9047 43.0947 35.5341 44.4275C36.1264 45.6493 36.5707 46.0936 37.1631 46.0936C38.3848 46.0936 38.5699 46.7229 37.5333 47.3894C36.4596 48.0928 32.202 48.0928 30.4249 47.3523C29.1291 46.797 28.7589 45.9084 29.0551 44.0203C29.2402 43.0207 29.4253 42.7615 30.1287 42.7615ZM41.2726 45.7603C40.9394 45.9824 40.7173 46.2786 40.8284 46.4637C41.1246 46.982 43.0497 46.6118 43.0497 46.0565C43.0497 45.4271 42.1242 45.242 41.2726 45.7603ZM19.7253 49.7958C19.17 49.7958 18.9849 49.3515 19.3921 48.9442C19.6883 48.6481 20.2807 48.9813 20.2807 49.4626C20.2807 49.6477 20.0215 49.7958 19.7253 49.7958ZM20.5028 50.4252C20.3917 50.7954 20.4287 51.5729 20.5768 52.2023L20.873 53.313L21.5024 51.5359C22.0577 49.8698 22.0577 49.7958 21.3913 49.7958C21.0211 49.7958 20.6139 50.092 20.5028 50.4252ZM29.1662 53.5351C26.6116 53.6461 24.4643 53.6832 24.3902 53.6091C24.2791 53.5351 24.5383 53.1648 24.9455 52.7946C25.5379 52.1652 26.0192 52.0912 28.2406 52.2763C29.6845 52.3874 31.4986 52.6465 32.3131 52.8687C33.6829 53.2759 33.4238 53.3129 29.1662 53.5351ZM19.17 56.682C19.17 57.2004 19.3181 57.5336 19.5402 57.3855C19.7623 57.2744 19.9104 56.8301 19.9104 56.4229C19.9104 56.0526 19.7623 55.7194 19.5402 55.7194C19.3551 55.7194 19.17 56.1637 19.17 56.682Z" fill="black"/>
</svg>
