<svg width="375" height="88" viewBox="0 0 375 88" fill="none" xmlns="http://www.w3.org/2000/svg">
<path d="M198.778 83.128C196.94 86.7209 197.107 86.6373 191.426 85.3004C188.418 84.632 186.329 83.4622 184.24 81.2898L181.148 78.1147L184.658 79.0338C188.501 80.12 189.587 79.2844 189.671 75.4409C189.754 73.5191 189.838 73.6027 191.342 76.36C193.849 81.2062 195.018 81.7911 198.026 79.6187C201.034 77.5298 201.202 78.5324 198.778 83.128Z" fill="black"/>
<path d="M148.562 87.9744L140.791 87.9744L146.139 84.465L151.486 80.9557L153.826 83.7966C155.163 85.3841 156.249 86.9717 156.249 87.3059C156.249 87.6401 152.739 87.9744 148.562 87.9744Z" fill="black"/>
<path d="M256.683 81.457C255.262 83.713 253.675 84.8828 251.335 85.4677C248.243 86.3032 247.909 86.2197 244.316 83.2117C240.556 80.2037 240.389 78.5326 243.982 80.4543C246.155 81.6241 247.742 80.5379 248.578 77.3628L249.079 75.1068L251.084 77.6134C252.923 79.8694 253.173 79.953 255.763 79.0339C257.267 78.449 258.604 78.0312 258.688 78.1983C258.771 78.2819 257.852 79.7859 256.683 81.457Z" fill="black"/>
<path d="M226.603 79.9532C223.595 79.4518 223.26 79.7025 221.589 82.2092C219.835 84.9665 219.751 84.9665 219.751 82.8776C219.751 81.7078 219.25 80.1203 218.665 79.2847C217.662 77.8643 217.411 77.8643 214.487 79.6189L211.479 81.4572L212.816 77.3629C213.484 75.1905 214.403 73.018 214.738 72.6838C215.072 72.266 217.495 71.6812 220.085 71.3469L224.764 70.6785L227.271 75.0234C228.691 77.4465 229.778 79.6189 229.778 79.9532C229.778 80.2038 228.357 80.2038 226.603 79.9532Z" fill="black"/>
<path d="M217.746 69.592C216.158 69.592 214.32 70.1769 213.651 70.8454C212.147 72.3494 208.471 82.8774 209.223 83.6294C209.557 83.88 211.395 83.2951 213.401 82.2925L217.077 80.5378L217.662 83.88C217.996 85.7183 218.08 87.3894 217.829 87.64C217.662 87.8907 213.317 87.8907 208.22 87.8071L199.029 87.5565L201.369 82.376C205.797 72.6 205.379 71.6809 198.862 76.4436C196.857 77.9476 195.102 78.7831 194.935 78.3654C194.183 76.2765 189.587 69.592 188.835 69.592C188.418 69.592 187.833 71.4303 187.499 73.6863L186.997 77.7805L182.318 76.1929C179.811 75.3574 177.555 74.6054 177.388 74.6054C175.216 74.6054 183.655 84.8827 186.997 86.136C188.251 86.6374 190.005 87.2223 190.924 87.3894C191.843 87.64 184.908 87.8071 175.55 87.8907C161.095 87.9743 158.672 87.8071 159.006 86.8045C159.257 86.136 159.925 84.0471 160.427 82.2089L161.346 78.7831L165.691 81.7076C168.03 83.2951 170.286 84.632 170.62 84.632C171.957 84.632 171.205 81.8747 167.947 75.4409L164.604 68.7565L192.595 68.7565C207.97 68.7565 220.587 68.9236 220.587 69.1743C220.587 69.4249 219.333 69.592 217.746 69.592Z" fill="black"/>
<path d="M166.944 79.9532C166.359 79.6189 164.855 78.6163 163.602 77.7807C160.677 75.7754 159.925 76.2767 158.505 80.9558L157.418 84.7994L155.079 81.7914C153.826 80.1203 152.405 78.7834 151.82 78.7834C151.235 78.7834 149.397 79.7025 147.726 80.8723C146.055 82.042 144.384 82.9612 144.133 82.9612C143.882 82.9612 145.136 80.3709 146.807 77.1958C150.233 70.9292 151.068 70.4278 159.34 70.4278C162.85 70.4278 162.933 70.5114 165.44 75.5247C166.86 78.3656 167.529 80.3709 166.944 79.9532Z" fill="black"/>
<path d="M148.812 70.0099C147.058 71.7646 139.538 86.4704 139.955 87.2224C140.29 87.6401 138.117 87.9744 135.026 87.9744L129.595 87.9744L132.435 83.0446C136.028 76.945 136.112 75.8588 133.104 76.6108C128.091 77.8641 127.589 77.697 126.587 74.4384C125.166 69.3415 123.913 68.7566 122.409 72.6001C121.657 74.3548 120.821 76.5273 120.487 77.3628C119.902 78.7833 119.317 78.5326 114.889 75.1068C109.875 71.1797 108.622 70.5948 108.622 72.0988C108.622 73.7699 113.886 86.721 114.805 87.3059C115.307 87.6401 109.959 87.9744 102.94 87.9744L90.0728 87.9744L92.7465 84.6321C96.1723 80.2873 96.2559 80.2873 99.7652 81.7077C101.353 82.3761 103.358 82.961 104.11 82.961C105.865 82.961 105.28 80.5379 102.021 73.6864L99.6816 68.7566L124.581 68.7566C138.368 68.7566 149.564 68.8401 149.564 69.0073C149.564 69.1744 149.23 69.5921 148.812 70.0099Z" fill="black"/>
<path d="M130.179 82.9611C129.177 84.5486 128.258 86.0526 128.174 86.2197C128.007 86.3868 125.082 86.2197 121.657 85.8855L115.39 85.3006L114.22 81.8748C113.552 79.9531 112.716 77.6135 112.298 76.6944C111.797 75.4411 112.633 75.8588 115.474 78.1148C117.646 79.8695 119.735 81.2899 120.32 81.2899C120.821 81.2899 121.907 79.7024 122.826 77.6971L124.33 74.1877L124.999 76.9451C125.667 80.2037 127.171 81.0393 130.012 79.7859C132.435 78.6162 132.519 79.2011 130.179 82.9611Z" fill="black"/>
<path d="M102.272 80.4543C102.021 80.4543 100.517 79.8695 98.7625 79.1175L95.6709 77.8641L93.3314 80.6215L90.9918 83.3788L91.4932 80.2872C92.5794 74.5219 91.6603 74.1041 86.4798 77.9477C83.9732 79.7859 81.8843 81.1228 81.8843 80.8721C81.8843 80.6215 82.8034 78.5326 83.9732 76.3601L85.9785 72.2659L91.9945 71.681C95.2532 71.3468 98.1776 71.4303 98.5954 71.7646C99.5145 72.7672 102.773 80.4543 102.272 80.4543Z" fill="black"/>
<path d="M92.6631 69.425C85.3102 69.8428 84.976 70.0934 81.216 77.4463C79.2942 81.2063 77.7067 84.6321 77.7067 84.8828C77.7067 86.1361 79.7956 85.3006 84.1405 82.1254C86.7307 80.2872 88.9867 78.9503 89.1538 79.1174C89.3209 79.2846 89.2374 81.3734 88.9031 83.713L88.3182 87.9743L75.8685 87.9743L63.4187 87.9743L67.68 80.1201C70.0196 75.6917 71.6071 72.0152 71.1058 71.7646C70.688 71.4303 68.3485 72.0152 66.0089 72.9343C63.6694 73.8534 61.5805 74.6054 61.4134 74.6054C60.8285 74.6054 58.3218 69.5086 58.7396 69.0908C58.9067 68.9237 67.3458 68.8401 77.3725 69.0072C87.3991 69.0908 94.3342 69.2579 92.6631 69.425Z" fill="black"/>
<path d="M65.591 79.8691C64.1705 82.4594 62.583 85.0496 62.0816 85.5509C61.5803 86.0522 59.1572 86.1358 55.6478 85.8016L50.0496 85.2167L47.0416 80.6211C42.6967 73.7696 42.6967 73.1847 47.0416 76.1091C52.5563 79.9527 52.6398 79.8691 53.9767 72.6834C54.7287 68.0878 55.815 68.0878 57.8203 72.8505C59.6585 77.446 60.5776 77.7802 64.4212 75.7749C65.8416 75.1065 67.1785 74.6051 67.5127 74.7722C67.847 74.9394 66.9278 77.1954 65.591 79.8691Z" fill="black"/>
<path d="M37.2658 87.9743L25.3173 87.9743L26.2364 84.6321C26.6542 82.7939 27.4898 81.3734 27.9911 81.6241C35.5111 84.6321 37.6 85.3006 37.9342 84.7157C38.352 84.1308 30.7484 72.6001 29.4116 71.7646C28.576 71.2632 15.9591 72.9343 13.6196 73.8535C11.8649 74.5219 11.6978 75.1068 11.6978 81.2899L11.6978 87.9743L5.84889 87.9743L0 87.9743L5.29588e-07 75.8588C8.21774e-07 69.1743 0.250668 63.7432 0.668445 63.7432C1.00267 63.7432 4.01067 64.913 7.26933 66.417C10.6116 67.8375 13.6196 68.7566 13.9538 68.5059C13.9538 68.5059 19.2178 69.0072 19.2178 68.7566L28.8267 68.7566C35.344 68.7566 38.4356 69.0908 38.4356 69.6757C38.4356 70.177 40.8587 74.5219 43.8667 79.2846L49.2142 87.9743L37.2658 87.9743Z" fill="black"/>
<path d="M32.0018 81.0391C26.9049 78.4489 25.9022 78.4489 24.9831 81.2898L24.064 83.88L22.4765 81.2898L20.8889 78.6995L17.1289 81.7911C13.3689 84.7991 13.3689 84.7991 13.3689 82.7102C13.3689 81.624 13.6196 79.5351 13.8702 78.1147C14.4551 75.4409 13.8702 75.608 25.3173 74.1875C28.6596 73.6862 28.9102 73.8533 30.9156 76.8613C34.6756 82.5431 34.6756 82.376 32.0018 81.0391Z" fill="black"/>
<path d="M313.584 87.8908C279.159 87.8073 251.92 87.5566 253.006 87.3895C254.176 87.1388 256.432 84.9664 258.604 81.8748C263.952 74.6055 263.618 73.1015 257.351 76.2766L254.092 77.9477L251.669 74.9397C248.912 71.5975 247.742 71.681 246.906 75.441C246.572 76.7779 246.071 78.1148 245.82 78.2819C245.486 78.449 242.979 77.9477 240.222 77.0286C237.465 76.193 234.958 75.7753 234.54 76.193C234.206 76.5273 236.713 79.3681 240.222 82.3761L246.572 87.9744L233.538 87.9744C223.344 87.9744 220.586 87.7237 221.088 86.8881C224.096 81.7077 224.514 81.457 228.524 82.3761C230.613 82.8775 232.535 82.961 232.869 82.7104C233.203 82.3761 231.866 79.1175 229.861 75.441L226.352 68.7566L254.928 68.7566L283.504 68.7566L274.981 75.5246C270.386 79.201 266.542 82.4597 266.542 82.7104C266.542 83.2953 296.455 82.5433 297.04 81.9584C297.29 81.7077 296.706 79.4517 295.703 77.0286C292.361 68.5895 292.361 68.5895 293.28 68.9237C293.781 69.0908 295.202 72.1824 296.455 75.9424C298.627 82.4597 301.385 87.7237 302.137 86.8881C302.387 86.721 301.802 85.217 300.883 83.713C299.964 82.1255 298.21 77.8641 296.873 74.1877C294.784 68.0881 294.617 66.5006 294.617 56.2233C294.7 39.2615 297.29 30.9895 305.145 22.2997C312.832 13.9442 322.524 8.01172 335.058 4.08461C349.763 -0.594504 360.626 -0.510948 371.237 4.16816L376 6.34061L376 15.0304L376 23.8037L372.658 20.9628C367.477 16.7015 360.876 12.8579 357.2 11.8553C346.922 9.01438 324.028 16.785 313.333 26.7282C306.314 33.2455 303.808 39.1779 303.724 49.5388C303.724 56.7246 303.975 57.9779 306.314 62.9077C310.242 71.1797 320.77 86.721 321.772 85.7184C322.357 85.1335 321.02 82.6268 317.845 78.2819C311.913 69.9264 306.816 59.8997 305.813 54.385C304.142 45.6117 307.568 35.0837 314.252 28.5664C318.764 24.1379 330.211 17.9548 338.818 15.281C351.769 11.2704 361.043 13.2757 370.819 22.2997L376 27.1459L376 48.9539L376 70.7619L371.738 74.689C369.399 76.8615 365.639 79.6188 363.299 80.8722C359.623 82.8775 358.453 83.1281 353.941 82.7939C344.583 82.0419 333.637 74.9397 329.626 67.169C325.365 58.6464 323.276 46.7815 325.031 40.3477C326.953 33.1619 336.311 26.4775 346.672 24.8064C353.273 23.7202 358.202 28.5664 363.634 41.1833C368.48 52.6304 366.892 58.897 357.785 64.6624C352.855 67.7539 349.93 67.7539 345.92 64.5788C342.745 62.0722 339.235 56.2233 339.235 53.4659C339.235 50.9593 342.578 43.105 345.168 39.5122C348.259 35.2508 349.095 35.6686 352.019 43.2722C353.774 47.7842 355.946 50.2908 355.946 47.7006C355.946 45.8624 349.763 34.1646 348.594 33.8304C347.006 33.329 342.828 38.3424 340.071 44.1077C335.642 53.3824 336.979 59.7326 344.917 66.417C350.515 71.1797 356.615 69.7593 363.717 62.1557C369.9 55.5548 369.984 49.7059 364.218 37.7575C358.035 24.9735 354.86 22.2997 346.672 23.0517C337.397 23.8873 328.122 29.4855 324.613 36.4206C322.023 41.7682 321.856 49.0375 324.112 58.145C327.287 70.2606 332.217 76.4437 343.162 81.8748C348.426 84.465 350.265 84.9664 354.944 84.9664C361.294 85.0499 364.97 83.3788 372.073 77.1122L376 73.6028L376 80.7886L376 87.9744L313.584 87.8908Z" fill="black"/>
<path d="M282.668 81.5406C275.483 81.7913 269.467 81.9584 269.299 81.8748C269.049 81.6242 288.768 66.1664 289.603 65.9993C290.021 65.8322 293.781 74.6891 295.369 79.7024C295.787 80.8722 294.199 81.1228 282.668 81.5406ZM291.776 74.7726C290.523 73.1015 289.938 72.9344 288.016 73.6864C285.091 74.7726 285.091 75.7753 288.016 75.1068C290.021 74.522 291.525 75.5246 291.609 77.2793C291.609 77.6971 288.768 77.9477 285.259 77.9477L278.908 77.9477L284.005 73.6864C286.846 71.3468 289.102 69.0908 289.102 68.5895C289.102 67.8375 286.178 70.01 279.493 75.8588C277.655 77.4464 276.318 78.7833 276.569 78.8668C276.819 78.8668 280.663 79.1175 285.175 79.3682C292.695 79.786 293.28 79.7024 293.28 78.282C293.28 77.3628 292.611 75.8588 291.776 74.7726Z" fill="black"/>
</svg>
