<svg width="245" height="43" viewBox="0 0 245 43" fill="none" xmlns="http://www.w3.org/2000/svg">
<path d="M64.8791 17.5619H68.3275V14.1621C68.3275 10.612 69.6292 7.6218 72.2328 5.19138C74.8364 2.76096 77.9246 1.54575 81.4976 1.54575H82.5362V8.34546H81.4976C79.8357 8.34546 78.3816 8.93259 77.1352 10.1068C75.8889 11.2538 75.2657 12.6055 75.2657 14.1621V17.5619H82.5362V24.4026H75.2657V29.5229C75.2657 33.1003 73.9777 36.1588 71.4019 38.6984C68.826 41.2381 65.7239 42.5079 62.0955 42.5079H61.0569V35.6672H62.0955C63.7851 35.6672 65.2392 35.0664 66.4579 33.8649C67.7043 32.636 68.3275 31.1887 68.3275 29.5229V24.4026H64.8791V17.5619Z" fill="black"/>
<path d="M108.461 27.1471H89.1836C89.4883 28.5944 90.2084 29.8096 91.344 30.7927C92.5073 31.7758 93.8229 32.2674 95.2909 32.2674H96.3296V39.0671H95.2909C91.6625 39.0671 88.5604 37.7972 85.9846 35.2576C83.4364 32.7452 82.1623 29.7004 82.1623 26.123V22.6822C82.1623 19.1049 83.4364 16.06 85.9846 13.5477C88.5604 11.008 91.6625 9.73817 95.2909 9.73817C98.9193 9.73817 102.021 11.008 104.597 13.5477C107.173 16.06 108.461 19.1049 108.461 22.6822V27.1471ZM89.5575 20.3064H100.983C100.484 19.1868 99.7225 18.2856 98.6977 17.6029C97.6729 16.8929 96.5373 16.5379 95.2909 16.5379C94.0445 16.5379 92.9089 16.8929 91.8841 17.6029C90.8593 18.2856 90.0838 19.1868 89.5575 20.3064Z" fill="black"/>
<path d="M125.663 10.7622H132.602V42.385L115.277 21.781V34.6432H108.339V3.02038L125.663 23.6243V10.7622Z" fill="black"/>
<path d="M160.128 27.1471H140.85C141.155 28.5944 141.875 29.8096 143.011 30.7927C144.174 31.7758 145.489 32.2674 146.957 32.2674H147.996V39.0671H146.957C143.329 39.0671 140.227 37.7972 137.651 35.2576C135.103 32.7452 133.829 29.7004 133.829 26.123V22.6822C133.829 19.1049 135.103 16.06 137.651 13.5477C140.227 11.008 143.329 9.73817 146.957 9.73817C150.586 9.73817 153.688 11.008 156.264 13.5477C158.84 16.06 160.128 19.1049 160.128 22.6822V27.1471ZM141.224 20.3064H152.649C152.151 19.1868 151.389 18.2856 150.364 17.6029C149.339 16.8929 148.204 16.5379 146.957 16.5379C145.711 16.5379 144.575 16.8929 143.551 17.6029C142.526 18.2856 141.75 19.1868 141.224 20.3064Z" fill="black"/>
<path d="M181.235 34.6432H163.952L161.75 38.1659L155.726 34.5203L172.594 7.56718L189.461 34.5203L183.437 38.1659L181.235 34.6432ZM168.19 27.8025H176.998L172.594 20.757L168.19 27.8025Z" fill="black"/>
<path d="M188.714 34.6432V18.2583L183.894 13.4657L188.714 8.71412L193.117 13.0151C195.555 10.8305 198.477 9.73817 201.884 9.73817H202.59V16.5379H201.884C200.194 16.5379 198.726 17.1523 197.48 18.3812C196.261 19.6101 195.652 21.0437 195.652 22.6822V34.6432H188.714Z" fill="black"/>
<path d="M201.418 10.7622H204.867V2.20114H211.805V10.7622H219.075V17.5619H211.805V22.6822C211.805 24.348 212.414 25.7953 213.633 27.0242C214.879 28.2258 216.347 28.8265 218.037 28.8265H219.075V35.6672H218.037C214.408 35.6672 211.306 34.3974 208.73 31.8577C206.154 29.3181 204.867 26.2596 204.867 22.6822V17.5619H201.418V10.7622Z" fill="black"/>
<path d="M245 27.1471H225.723C226.027 28.5944 226.748 29.8096 227.883 30.7927C229.046 31.7758 230.362 32.2674 231.83 32.2674H232.869V39.0671H231.83C228.202 39.0671 225.1 37.7972 222.524 35.2576C219.975 32.7452 218.701 29.7004 218.701 26.123V22.6822C218.701 19.1049 219.975 16.06 222.524 13.5477C225.1 11.008 228.202 9.73817 231.83 9.73817C235.458 9.73817 238.56 11.008 241.136 13.5477C243.712 16.06 245 19.1049 245 22.6822V27.1471ZM226.097 20.3064H237.522C237.023 19.1868 236.262 18.2856 235.237 17.6029C234.212 16.8929 233.076 16.5379 231.83 16.5379C230.584 16.5379 229.448 16.8929 228.423 17.6029C227.398 18.2856 226.623 19.1868 226.097 20.3064Z" fill="black"/>
<rect x="39.4165" y="29.3691" width="17.776" height="4.63722" fill="black"/>
<path d="M52.9105 10.9253V8.50159H57.1924V27.0505H52.9105V24.6515C51.7311 25.2945 50.4491 25.616 49.0645 25.616C46.8252 25.616 44.9108 24.8493 43.3211 23.316C41.7485 21.7826 40.9622 19.936 40.9622 17.776C40.9622 15.6161 41.7485 13.7777 43.3211 12.2608C44.9108 10.7275 46.8252 9.96077 49.0645 9.96077C50.4491 9.96077 51.7311 10.2823 52.9105 10.9253ZM49.0645 14.0663C48.0389 14.0663 47.1415 14.4372 46.3723 15.1792C45.603 15.9211 45.2184 16.7868 45.2184 17.776C45.2184 18.7818 45.603 19.6557 46.3723 20.3976C47.1415 21.1231 48.0389 21.4858 49.0645 21.4858C50.1072 21.4858 51.0046 21.1231 51.7567 20.3976C52.5259 19.6557 52.9105 18.7818 52.9105 17.776C52.9105 16.7868 52.5259 15.9211 51.7567 15.1792C51.0046 14.4372 50.1072 14.0663 49.0645 14.0663Z" fill="black"/>
<path d="M6.39701 6.82766V0H7.39033C10.8603 0 13.8271 1.27505 16.2905 3.82514C18.754 6.34781 19.9857 9.40517 19.9857 12.9972C19.9857 15.9861 18.8467 19.0023 16.5687 22.0459L13.3503 26.3646H23.959V33.2334H0L11.602 17.4805C12.2907 16.5482 12.7278 15.8764 12.9132 15.4651C13.2046 14.807 13.3503 13.9844 13.3503 12.9972C13.3503 11.352 12.7543 9.91245 11.5623 8.67853C10.3968 7.44462 9.00614 6.82766 7.39033 6.82766H6.39701Z" fill="black"/>
<rect x="28.5962" y="9.27444" width="7.72871" height="24.7319" fill="black"/>
</svg>
